<?xml version="1.0" encoding="UTF-8"?>
<svg version="1.1" xmlns="http://www.w3.org/2000/svg" width="617" height="749">
<path d="M0 0 C26.07 0 52.14 0 79 0 C79.06058594 8.03472656 79.12117187 16.06945312 79.18359375 24.34765625 C79.22416039 29.48372839 79.26497015 34.61979636 79.30664062 39.75585938 C79.37254044 47.88108752 79.43773766 56.00631453 79.49731445 64.1315918 C79.5455847 70.6933909 79.5979362 77.25514665 79.65294075 83.81689262 C79.67308481 86.3014764 79.69183796 88.78607192 79.70907402 91.27067757 C79.79398441 103.38428716 79.94294089 115.48697369 80.44165039 127.59155273 C80.4955564 128.95421941 80.4955564 128.95421941 80.55055141 130.34441471 C81.48909786 150.85682947 84.93619282 174.35125336 100.5390625 189.1171875 C118.76752567 203.06340853 142.00398704 203.41036956 163.9375 203.3125 C164.83285461 203.31001251 165.72820923 203.30752502 166.6506958 203.30496216 C213.02815148 203.10654766 259.48133119 192.70708056 293.75 159.625 C302.91605752 150.13966036 309.85933671 139.59151639 316 128 C316.46148437 127.13246094 316.92296875 126.26492188 317.3984375 125.37109375 C324.64053591 110.63319285 328.77258876 93.49435161 330.125 77.1875 C330.2084668 76.18267578 330.29193359 75.17785156 330.37792969 74.14257812 C332.13110028 51.43007421 331.51667161 28.58470008 325.0234375 6.640625 C324 3 324 3 324 0 C356.01 0 388.02 0 421 0 C424.51209415 10.53628245 426.30679063 19.72191134 426.37109375 30.765625 C426.38012222 31.76092224 426.3891507 32.75621948 426.39845276 33.78167725 C426.41286469 35.879161 426.42181923 37.97668878 426.42553711 40.07421875 C426.43731673 43.20134611 426.48649545 46.32641915 426.53710938 49.453125 C426.75113386 76.2048675 419.78447058 101.58302649 407 125 C406.4225 126.06992187 405.845 127.13984375 405.25 128.2421875 C399.39635646 138.67576511 392.21390053 147.92788011 384.109375 156.703125 C382.22100188 158.75935351 380.42019417 160.86286408 378.625 163 C359.54518691 184.73704733 332.05898304 200.31860457 305.99609375 212.09472656 C304.219934 212.90025498 302.45300455 213.72606626 300.6875 214.5546875 C267.71016406 229.5076462 231.46066997 235.4731786 195.8203125 239.87109375 C195.00585663 239.97174637 194.19140076 240.07239899 193.3522644 240.17610168 C182.99863856 241.41295419 172.73626863 242.15016749 162.30670166 242.12025452 C161.19388942 242.12110894 160.08107719 242.12196337 158.93454337 242.12284368 C155.24052506 242.12447853 151.54655312 242.11901005 147.85253906 242.11352539 C145.19070331 242.11324306 142.52887032 242.11335821 139.86703491 242.1139679 C134.15413186 242.11449003 128.44124031 242.11137577 122.72834015 242.10573006 C114.46863721 242.09757285 106.20893979 242.09499553 97.94923326 242.09374207 C84.54557945 242.09155816 71.14193175 242.08491604 57.73828125 242.07543945 C44.72460968 242.0662482 31.71093979 242.05917576 18.69726562 242.05493164 C17.8939295 242.05466892 17.09059338 242.05440619 16.26291373 242.05413551 C12.23246212 242.05283039 8.20201049 242.0515667 4.17155886 242.05032361 C-29.21896538 242.03997159 -62.60948151 242.02209441 -96 242 C-96 231.11 -96 220.22 -96 209 C-88.08 208.38125 -88.08 208.38125 -80 207.75 C-44.32524623 205.91384848 -44.32524623 205.91384848 -13 191 C-10.49521484 187.8600546 -8.68571902 184.63699652 -7 181 C-6.68546875 180.35289062 -6.3709375 179.70578125 -6.046875 179.0390625 C-0.22616276 165.51446642 -0.85514914 148.50628203 -0.79467773 134.07348633 C-0.78507656 132.60389952 -0.77506525 131.13431535 -0.76467896 129.66473389 C-0.73786609 125.70891686 -0.71673015 121.7530882 -0.69667697 117.79723191 C-0.67467003 113.65058208 -0.64735394 109.50396715 -0.62062073 105.35734558 C-0.57089122 97.52017753 -0.52587994 89.68298991 -0.48259836 81.84578389 C-0.42377738 71.24472712 -0.35759774 60.6437164 -0.29184818 50.04270077 C-0.18858268 33.36183163 -0.09508834 16.6809224 0 0 Z " fill="#A98E35" transform="translate(144,465)"/>
<path d="M0 0 C38.30224821 -0.06798878 76.60448039 -0.12162008 114.90677693 -0.15319599 C119.44102522 -0.15694757 123.97527338 -0.16083059 128.50952148 -0.16479492 C129.41211061 -0.16558185 130.31469974 -0.16636878 131.24464006 -0.16717956 C145.80978715 -0.18019089 160.37489828 -0.20382086 174.94002413 -0.23145839 C189.91393693 -0.25963209 204.88783105 -0.27620138 219.86176926 -0.28226548 C229.08225796 -0.28635727 238.30264499 -0.29922336 247.52310235 -0.3237494 C253.86810659 -0.33975478 260.21305919 -0.34436738 266.5580821 -0.34050413 C270.2047035 -0.33860527 273.85114879 -0.34126311 277.49773788 -0.35761642 C294.89554521 -0.43176897 311.78329465 0.43846727 329 3 C329.73735189 3.10714345 330.47470379 3.21428689 331.23439968 3.32467711 C369.75240225 8.94638384 408.7122912 22.90896312 435 53 C435 53.66 435 54.32 435 55 C435.66 55 436.32 55 437 55 C464.30390983 89.36690039 473.01192094 132.55464728 468.375 175.59765625 C466.6945509 188.24127476 463.39316917 200.69736317 458.16217041 212.3576355 C456.96734432 214.96875098 456.96734432 214.96875098 456.10894775 217.6361084 C454.75740359 220.79993866 453.58027304 222.69571187 451 225 C444.98067943 226.44889813 439.06895918 226.16508923 432.9140625 225.9765625 C431.1290585 225.95789903 429.34400309 225.94367016 427.55892944 225.9336853 C422.87218494 225.89559584 418.18856561 225.797459 413.50305176 225.68664551 C408.71730837 225.58413881 403.93105721 225.5386326 399.14453125 225.48828125 C389.7616515 225.38119947 380.38108611 225.21065099 371 225 C371.71614659 221.15317771 372.82732536 217.87327436 374.3125 214.25 C386.36174183 181.65395508 384.45929959 139.68619848 371 108 C370.35327307 106.22949282 369.70732745 104.45869986 369.0625 102.6875 C364.35228922 91.11550069 356.01174395 80.54960324 347 72 C346.51402344 71.48179688 346.02804687 70.96359375 345.52734375 70.4296875 C321.18648316 44.76532858 282.27365793 36.74776793 248.2734375 35.796875 C210.58882518 34.4699895 210.58882518 34.4699895 177 48 C173.72691712 51.59604362 172.16729027 54.71894529 170.8125 59.375 C170.32716797 60.99535156 170.32716797 60.99535156 169.83203125 62.6484375 C168.24277688 69.0502227 167.75968347 75.45509662 167.45727539 82.01831055 C167.41545419 82.92011645 167.37363298 83.82192236 167.33054447 84.75105572 C166.79986914 97.35475628 166.77110019 109.9691288 166.69667697 122.5819838 C166.67441808 126.19739351 166.64722959 129.81276653 166.62062073 133.42814636 C166.57122152 140.2379172 166.52609293 147.04770897 166.48259836 153.85751981 C166.42340365 163.08538974 166.35740947 172.31321108 166.29184818 181.54103756 C166.18910178 196.02732536 166.09526489 210.51365659 166 225 C139.93 225 113.86 225 87 225 C86.95101562 215.57050781 86.90203125 206.14101562 86.8515625 196.42578125 C86.81613361 190.41470491 86.78022603 184.40363758 86.7421875 178.39257812 C86.68203727 168.87347567 86.62371641 159.35438989 86.578125 149.83520508 C86.54489477 142.89884178 86.50489999 135.96255385 86.45720994 129.02627438 C86.43224853 125.36304879 86.41038312 121.69987119 86.39665604 118.03658485 C87.54876038 87.74239275 87.54876038 87.74239275 80 59 C79.443125 57.90171875 79.443125 57.90171875 78.875 56.78125 C73.44347617 47.20461589 64.97517476 42.58300982 54.609375 39.65625 C52.99350252 39.25471897 51.37332406 38.87025671 49.75 38.5 C48.85265137 38.2935083 47.95530273 38.0870166 47.03076172 37.87426758 C31.59311223 34.59247576 15.68836416 33.49851504 0 32 C0 21.44 0 10.88 0 0 Z " fill="#CBAB40" transform="translate(57,41)"/>
<path d="M0 0 C1.04942276 -0.00637985 2.09884552 -0.0127597 3.18006897 -0.01933289 C4.90162453 -0.02100212 4.90162453 -0.02100212 6.65795898 -0.02270508 C7.83937973 -0.02603348 9.02080048 -0.02936188 10.23802185 -0.03279114 C12.75421763 -0.0378711 15.27042019 -0.04019914 17.78662109 -0.04003906 C21.5856494 -0.04219747 25.38437386 -0.06026284 29.18334961 -0.0793457 C72.72888628 -0.18386103 72.72888628 -0.18386103 87.09155273 13.14526367 C89.34155273 15.52026367 89.34155273 15.52026367 91.09155273 18.14526367 C91.45120117 18.6840918 91.81084961 19.22291992 92.18139648 19.77807617 C96.0781761 26.40676179 96.88466298 34.15782039 95.68530273 41.69995117 C92.58446443 52.36831154 85.01983356 58.17189429 76.09155273 64.14526367 C77.03256836 64.56936523 77.97358398 64.9934668 78.94311523 65.43041992 C88.19559991 69.73263323 94.41116174 73.41736595 98.47412109 83.22290039 C101.00289725 91.09620347 99.9442746 101.59448391 96.41577148 108.97338867 C89.85313641 119.73688455 79.99367777 126.39099338 68.09155273 130.14526367 C59.47513817 132.22739787 51.05972169 132.41093371 42.23608398 132.34057617 C40.83933212 132.33683605 39.44257759 132.33399382 38.04582214 132.33200073 C34.40775025 132.32444275 30.76984353 132.30486383 27.13183594 132.28259277 C23.40423821 132.26196333 19.67661323 132.25296283 15.94897461 132.24291992 C8.66309283 132.2216087 1.37734611 132.18757023 -5.90844727 132.14526367 C-5.93177589 115.08225781 -5.94942626 98.0192569 -5.96025944 80.95623875 C-5.96542247 73.03413422 -5.97246531 65.11203959 -5.98388672 57.18994141 C-5.99383333 50.2875173 -6.00030064 43.38510036 -6.00253576 36.48266929 C-6.00384291 32.82565706 -6.006929 29.16866531 -6.01417732 25.51165962 C-6.02219074 21.43582361 -6.02243842 17.36002354 -6.02197266 13.28417969 C-6.02556793 12.06282822 -6.02916321 10.84147675 -6.03286743 9.58311462 C-6.03149277 8.47948578 -6.0301181 7.37585693 -6.02870178 6.23878479 C-6.02962358 5.27366754 -6.03054537 4.30855028 -6.03149509 3.31418705 C-5.79893787 -0.78502218 -3.57897725 0.01472318 0 0 Z M22.09155273 21.14526367 C22.42155273 32.69526367 22.75155273 44.24526367 23.09155273 56.14526367 C27.69092773 56.20713867 32.29030273 56.26901367 37.02905273 56.33276367 C39.17715454 56.37373169 39.17715454 56.37373169 41.36865234 56.41552734 C52.79633055 56.67723477 52.79633055 56.67723477 62.70068359 51.69262695 C67.36523251 46.29363879 67.44525341 42.29244646 67.36108398 35.35229492 C67.00624198 31.13018932 66.13330837 29.11097541 63.09155273 26.14526367 C56.61172939 21.89891135 50.27809039 21.01104206 42.59936523 21.04760742 C41.51800293 21.05010498 40.43664062 21.05260254 39.32250977 21.05517578 C37.96754395 21.06427979 36.61257812 21.07338379 35.21655273 21.08276367 C28.71967773 21.11370117 28.71967773 21.11370117 22.09155273 21.14526367 Z M22.09155273 75.14526367 C22.09155273 87.02526367 22.09155273 98.90526367 22.09155273 111.14526367 C27.16530273 111.20713867 32.23905273 111.26901367 37.46655273 111.33276367 C39.0461377 111.36007568 40.62572266 111.3873877 42.25317383 111.41552734 C51.26420137 111.46850658 60.20812913 111.4865146 67.59155273 105.64526367 C71.20005588 101.50216746 71.98751316 96.51073318 72.09155273 91.14526367 C71.38409344 86.39517981 70.07880444 83.15849569 66.71655273 79.70776367 C59.93492834 75.67108248 53.53978137 75.01531231 45.72436523 75.04760742 C44.48058105 75.05010498 43.23679687 75.05260254 41.95532227 75.05517578 C40.39152832 75.06427979 38.82773438 75.07338379 37.21655273 75.08276367 C32.22530273 75.10338867 27.23405273 75.12401367 22.09155273 75.14526367 Z " fill="#C1A23D" transform="translate(165.908447265625,300.854736328125)"/>
<path d="M0 0 C4.95129356 5.0318024 8.88510995 11.52567084 9.0703125 18.73828125 C9.04710937 19.48464844 9.02390625 20.23101562 9 21 C-6.14565678 24.82627119 -6.14565678 24.82627119 -11 24 C-13.53935292 21.53320002 -15.0742558 18.88023257 -16.9375 15.875 C-19.20701059 12.71143979 -20.38337171 11.41520237 -24 10 C-29.97461834 9.27944301 -34.90188777 9.51836238 -40 13 C-43.77073457 17.16081056 -44.37092848 21.16869535 -44.265625 26.609375 C-42.8748011 39.1267901 -29.28278131 48.72610986 -20.68115234 56.72851562 C-13.26689566 63.6347675 -6.11712769 70.78963483 1 78 C5.46799393 71.2980091 7.27325616 62.96983748 8.3125 55.05859375 C9 53 9 53 10.484375 51.234375 C14.34165936 49.34167025 18.01919753 49.68359274 22.25 49.8125 C23.51070312 49.83280273 23.51070312 49.83280273 24.796875 49.85351562 C26.86485938 49.88876536 28.93251271 49.9425698 31 50 C30.49879468 66.48965496 25.70203153 79.60542651 18 94 C20.4542677 96.48322005 22.91408565 98.96086813 25.375 101.4375 C26.07367188 102.14455078 26.77234375 102.85160156 27.4921875 103.58007812 C28.1625 104.25361328 28.8328125 104.92714844 29.5234375 105.62109375 C30.14138184 106.2442749 30.75932617 106.86745605 31.39599609 107.50952148 C32.94660067 109.09048151 32.94660067 109.09048151 35 110 C35 110.66 35 111.32 35 112 C35.58265625 112.26941406 36.1653125 112.53882813 36.765625 112.81640625 C39.01108176 114.00587023 40.80694844 115.30583491 42.75 116.9375 C43.36359375 117.44152344 43.9771875 117.94554687 44.609375 118.46484375 C46 120 46 120 46 123 C41.99828532 123.09957372 37.99705958 123.17179608 33.99438477 123.21972656 C32.63553287 123.23972628 31.27676576 123.26693576 29.91821289 123.30175781 C20.27183056 123.54265168 14.89277308 123.30375545 7.56640625 116.859375 C6.90511719 116.16328125 6.24382812 115.4671875 5.5625 114.75 C4.54349609 113.69039062 4.54349609 113.69039062 3.50390625 112.609375 C3.00761719 112.07828125 2.51132812 111.5471875 2 111 C-1.63850978 112.34785487 -4.9985806 114.03669969 -8.4152832 115.86914062 C-23.91632435 124.05851115 -41.96506017 127.17175511 -59.125 122.375 C-64.6995466 120.37497183 -69.32144948 117.59509672 -74 114 C-74.886875 113.401875 -75.77375 112.80375 -76.6875 112.1875 C-83.91657528 105.34918554 -87.95512421 96.43706046 -88.375 86.5 C-87.85483984 74.66115477 -82.13460098 65.5785705 -73.5625 57.6875 C-69.60560322 54.33569568 -65.47835349 51.60558748 -61 49 C-61.49371094 48.02417969 -61.98742187 47.04835938 -62.49609375 46.04296875 C-63.14333531 44.75786595 -63.79046488 43.47270675 -64.4375 42.1875 C-64.76298828 41.54490234 -65.08847656 40.90230469 -65.42382812 40.24023438 C-69.62251601 31.88614405 -70.38125915 23.24062868 -68.3515625 14.0703125 C-64.33117433 3.04001675 -56.37104955 -3.06075345 -46 -8 C-30.63163146 -14.10933378 -12.56735975 -9.8799998 0 0 Z M-49 63 C-54.93393926 67.47925997 -59.1308518 71.65191115 -61 79 C-61.8551721 85.2445379 -61.52837039 90.75132072 -58.33984375 96.27734375 C-55.16682775 100.35693574 -51.10958985 103.12482804 -46 104 C-33.65934958 104.7082934 -23.66492011 103.72353659 -13 97 C-17.68570406 91.37116701 -22.68479552 86.16421013 -27.875 81 C-28.63941406 80.23171875 -29.40382813 79.4634375 -30.19140625 78.671875 C-38.73367204 69.68551199 -38.73367204 69.68551199 -49 63 Z " fill="#B69939" transform="translate(366,310)"/>
<path d="M0 0 C0.598125 0.53625 1.19625 1.0725 1.8125 1.625 C0.51487168 5.12241728 -1.00129238 8.14216882 -3.0625 11.25 C-3.55492187 12.00539063 -4.04734375 12.76078125 -4.5546875 13.5390625 C-6.32840168 15.80500358 -7.64059975 17.26482746 -10.1875 18.625 C-14.81826541 18.42311377 -18.2632561 16.77907348 -22.3125 14.625 C-31.04527851 10.00307142 -40.34582751 9.08399914 -50.06640625 11.2734375 C-54.13404057 12.84152058 -55.85910761 14.13241141 -58.3125 17.8125 C-59.32519079 22.22493843 -59.84159672 26.32275806 -58.1875 30.625 C-51.14804638 37.25108329 -41.33018314 39.60285747 -32.32495117 42.47387695 C-18.16624521 47.01412576 -6.17550773 51.30084875 1.625 64.75 C5.3063687 73.66278738 5.18955401 85.59259239 1.8125 94.625 C-4.02692398 106.69563039 -12.99533031 114.51297012 -25.4375 119.4375 C-42.38044638 124.80276635 -61.74865001 122.28019047 -77.625 114.8125 C-82.93467534 111.9724411 -87.61427395 108.52841011 -92.1875 104.625 C-90.75062329 101.60687141 -89.10046688 98.84526317 -87.25 96.0625 C-86.74597656 95.29808594 -86.24195313 94.53367187 -85.72265625 93.74609375 C-85.21605469 93.04613281 -84.70945312 92.34617187 -84.1875 91.625 C-83.77371094 91.03847656 -83.35992187 90.45195312 -82.93359375 89.84765625 C-79.99925794 87.79296473 -77.66900319 88.22649287 -74.1875 88.625 C-71.65217579 89.82962918 -69.46381155 91.0029534 -67.125 92.5 C-56.64447976 99.02582448 -46.69520915 100.89321806 -34.5703125 98.28515625 C-30.49185224 97.15522218 -28.08271287 95.86030599 -25.59375 92.42578125 C-23.06364363 87.38665272 -23.47954419 82.1187371 -24.1875 76.625 C-28.6746474 68.93274732 -40.41973748 66.80222645 -48.51660156 64.49414062 C-61.35088272 60.83269463 -75.09248142 56.60207657 -82.45703125 44.546875 C-87.06759177 35.74933903 -87.71112049 25.29410455 -85.50390625 15.6328125 C-80.95175635 3.5063385 -72.23186943 -3.93478264 -60.7265625 -9.33984375 C-41.09555501 -17.34325449 -16.54724449 -12.32931943 0 0 Z " fill="#B49738" transform="translate(507.1875,312.375)"/>
</svg>
